<svg xmlns="http://www.w3.org/2000/svg" viewBox="0 0 341.22 91.6"><defs><style>.cls-1{fill:#ea7200;}</style></defs><title>genius-small-logo</title><g id="Layer_1" data-name="Layer 1"><path d="M207.78,93.15h-6a28.6,28.6,0,0,1-.45-3.77c-1.36,3.32-4.3,4.52-7.54,4.52-7.38,0-9.8-5.35-9.8-13.94V56.38c0-8.21,3.17-14.32,12-14.32,10.55,0,11.68,7.76,11.68,13.19V56.9h-7.76v-2c0-2.64-.45-5.73-4-5.73-2.79,0-4,2-4,6V80.87c0,4.07,1.13,6.18,4,6.18C199.19,87,200,84.18,200,79V71.67h-4.37V65h12.13Z" transform="translate(-74.43 -38.13)"/><path d="M219.84,42.81V81.09c0,3.69,1.21,5.8,4.22,5.8s4.07-2.41,4.07-5.8V42.81h7.76V80.94c0,8-3.54,13-12,13-8,0-11.83-4.37-11.83-13V42.81Z" transform="translate(-74.43 -38.13)"/><path d="M240.94,93.15V42.81h9l6.71,25.7c.9,3.69,1.43,6.71,1.88,8.89h.08c-.38-6.18-.38-13.26-.38-21.48V42.81h7.16V93.15h-8.67L249.3,63.76c-.68-2.64-1.06-4.82-1.36-6.33h-.07c.38,6.1.3,12.89.3,21.93V93.15Z" transform="translate(-74.43 -38.13)"/><path d="M299.26,93.15h-3.84a39,39,0,0,1-.3-4.52c-1.21,3.84-4.07,5.2-7.39,5.2-6.86,0-9.12-5.12-9.12-13V55.25c0-8.29,3.39-13.11,10.47-13.11,8.36,0,10.1,5.88,10.1,12.51v1.21h-4.82V54.57c0-3.77-.38-8.06-5.27-8.06-3.69,0-5.58,2.34-5.58,8.44v26c0,5.12,1.36,8.59,5.2,8.59,4.9,0,5.73-4.6,5.73-11.38V70h-5.88V65.8h10.7Z" transform="translate(-74.43 -38.13)"/><path d="M320.82,68.43h-11.3V88.78h12.81l-.68,4.37h-17V42.81h16.8v4.45h-12v16.8h11.3Z" transform="translate(-74.43 -38.13)"/><path d="M325.26,93.15V42.81h5.8l9,32.1a90.38,90.38,0,0,1,2,8.89h.15c-.3-6.86-.38-13.94-.38-22.16V42.81h4.52V93.15h-5.58l-10-36.55c-.68-2.56-1.05-4.52-1.28-5.88h-.08c.3,6,.45,14.39.45,23.51V93.15Z" transform="translate(-74.43 -38.13)"/><path d="M357.29,42.81V93.15h-4.82V42.81Z" transform="translate(-74.43 -38.13)"/><path d="M368,42.81V82.15c0,4.22,1.51,7.23,5.43,7.23,4.07,0,5.43-2.71,5.43-7.23V42.81h4.9V82c0,7.76-3.54,11.83-10.4,11.83S363.17,90,363.17,82.15V42.81Z" transform="translate(-74.43 -38.13)"/><path d="M392,79.13V82c0,5,1.73,7.61,5.43,7.61S402.66,87,402.66,81s-1.28-8.44-6.56-12.51C390.67,64.29,388,61.8,388,54.42c0-6.33,1.88-12.36,9.5-12.28,7.08.08,9.19,4.67,9.19,11.23v2.26H401.9V53.51c0-4.3-.83-7.16-4.52-7.16s-4.6,3.24-4.6,7.31c0,5,1,6.71,5.65,10.25,6.86,5.28,9,8.14,9,16.43,0,7.08-1.88,13.49-10.17,13.49-7.84,0-10.17-5.2-10.17-11.83V79.13Z" transform="translate(-74.43 -38.13)"/><path d="M185.25,111.93c0-2.28,0-3.77,0-4.82h2a11.66,11.66,0,0,1,.1,1.82,3,3,0,0,1,3-2.08c2.28,0,3.37,1.52,3.37,4.82v7.17c0,3.7-1.45,5.28-3.6,5.28a2.74,2.74,0,0,1-2.77-1.68v7.07h-2.08Zm2.08,6.14c0,2,.26,4.1,2.21,4.1,1.45,0,2-1.16,2-3.27v-7.17c0-2.15-.79-2.94-1.88-2.94-1.92,0-2.38,1.65-2.38,3.86Z" transform="translate(-74.43 -38.13)"/><path d="M203.85,111.76v7.13c0,3.67-1.72,5.22-4.29,5.22s-4.2-1.52-4.2-5.12v-7.27c0-3.14,1.62-4.89,4.29-4.89S203.85,108.66,203.85,111.76Zm-6.38,0v7.37c0,1.92.66,3.14,2.11,3.14s2.11-.92,2.11-3.17V111.7c0-1.72-.59-3-2.08-3S197.47,109.81,197.47,111.73Z" transform="translate(-74.43 -38.13)"/><path d="M207,107.11c1.32,8.65,1.72,11.66,1.92,13.87h0c.23-2.21.69-4.82,2.25-13.87h2.15c1.52,9.15,2,11.73,2.18,13.84h0c.16-1.85.43-4,1.95-13.84h2.11l-3,16.75h-2.24c-.92-5.68-1.85-10.8-2.15-13.41h0c-.2,2.48-1.09,7-2.25,13.41h-2.28l-2.87-16.75Z" transform="translate(-74.43 -38.13)"/><path d="M222.61,115.86v2.81c0,1.75.33,3.63,2.08,3.63s2-1.32,2-3v-.13h2v.13c0,2-.46,4.86-4,4.86-3.34,0-4.16-2.21-4.16-5.62v-6.41c0-2.61.93-5.25,4.2-5.25s4,2.38,4,5.25v3.77Zm4.13-1.75v-2.18c0-1.55-.23-3.27-2-3.27s-2.08,1.45-2.08,3.3v2.15Z" transform="translate(-74.43 -38.13)"/><path d="M236.19,109.48c-2.11,0-3.47,1.39-3.47,4.29v10.07h-2.08v-11c0-2.71,0-4.29,0-5.71h2c0,.46.07,1.42.07,2.58a3.59,3.59,0,0,1,3.5-2.81Z" transform="translate(-74.43 -38.13)"/><path d="M239,115.86v2.81c0,1.75.33,3.63,2.08,3.63s2-1.32,2-3v-.13h2v.13c0,2-.46,4.86-4,4.86-3.34,0-4.16-2.21-4.16-5.62v-6.41c0-2.61.93-5.25,4.2-5.25s4,2.38,4,5.25v3.77Zm4.13-1.75v-2.18c0-1.55-.23-3.27-2-3.27S239,110.11,239,112v2.15Z" transform="translate(-74.43 -38.13)"/><path d="M255.12,100.8v18.83c0,1.85,0,3.27,0,4.23h-2c0-.3-.1-1.22-.1-1.65a2.83,2.83,0,0,1-2.91,1.92c-2.77,0-3.5-2.18-3.5-5.38V111.8c0-3,1.19-5,3.77-5A2.79,2.79,0,0,1,253,108.1v-7.3Zm-6.38,18c0,2.25.6,3.4,2,3.4,1.85,0,2.28-1.78,2.28-4.16v-5.61c0-1.85-.2-3.6-2.21-3.6-1.42,0-2,1.19-2,3.11Z" transform="translate(-74.43 -38.13)"/><path d="M261.46,100.8h2.08v7.86a3,3,0,0,1,3-1.82c2.38,0,3.37,1.95,3.37,4.79v6.64c0,3.34-.73,5.81-3.73,5.81a2.7,2.7,0,0,1-2.78-1.88,12,12,0,0,1-.1,1.65h-1.88c0-.89,0-2.41,0-4.46ZM267.8,112c0-2-.5-3.17-1.95-3.17-2,0-2.31,2-2.31,4.36v5.05c0,2.71.63,3.93,2.21,3.93,1.36,0,2-1.09,2-3.53Z" transform="translate(-74.43 -38.13)"/><path d="M273,107.11c1.16,6.24,2.24,12.19,2.41,14.07h.07c.33-2.64,1.55-8.52,2.54-14.07h2.15l-3.73,17.67c-1,4.62-2.31,5-4.13,5a6.17,6.17,0,0,1-1.16-.13l0-1.95a3.43,3.43,0,0,0,.92.13c1.26,0,1.78-.56,2.28-3.34l-3.67-17.34Z" transform="translate(-74.43 -38.13)"/><path d="M293.77,123.85h-1.68a17,17,0,0,1-.13-2,3.09,3.09,0,0,1-3.24,2.28c-3,0-4-2.25-4-5.71v-11.2c0-3.63,1.49-5.75,4.59-5.75,3.67,0,4.42,2.58,4.42,5.48v.53h-2.11v-.56c0-1.65-.16-3.53-2.31-3.53-1.62,0-2.44,1-2.44,3.7V118.5c0,2.25.59,3.77,2.28,3.77,2.15,0,2.51-2,2.51-5v-3.57h-2.58v-1.85h4.69Z" transform="translate(-74.43 -38.13)"/><path d="M304.34,119.43c0,2.08,0,3.67,0,4.43h-2c0-.3-.07-1.16-.07-1.78a2.82,2.82,0,0,1-3,2c-1.32,0-3.24-.5-3.24-4.26V107.11h2.11v12.19c0,2.11.56,2.91,1.85,2.91s2.21-.73,2.21-4.16V107.11h2.11Z" transform="translate(-74.43 -38.13)"/><path d="M306.86,112.19c0-3.37,0-4.26,0-5.09h2a10.5,10.5,0,0,1,.1,1.72,3,3,0,0,1,3.07-2c1.78,0,3.27,1,3.27,4.06v12.95h-2.11V111.3c0-1.62-.53-2.51-1.82-2.51-1.45,0-2.38.69-2.38,4.1v11h-2.08Z" transform="translate(-74.43 -38.13)"/><path d="M317.62,101.79h3.7c3.34,0,4.56,1.82,4.56,4.76v1c0,3.1-.89,4.06-2,4.46,1.25.4,2.51,1.49,2.51,4.43v1.62c0,3.9-1.26,5.78-5,5.78h-3.73Zm3.67,9.41c2,0,2.58-.86,2.58-3.5v-1c0-2-.76-3.07-2.71-3.07h-1.45v7.6Zm-1.58,10.87h1.49c2.44,0,3.07-1.19,3.07-4v-1.52c0-2.48-.92-3.53-3-3.53h-1.52Z" transform="translate(-74.43 -38.13)"/><path d="M333.65,109.48c-2.11,0-3.47,1.39-3.47,4.29v10.07H328.1v-11c0-2.71,0-4.29,0-5.71h2c0,.46.07,1.42.07,2.58a3.59,3.59,0,0,1,3.5-2.81Z" transform="translate(-74.43 -38.13)"/><path d="M342.83,111.76v7.13c0,3.67-1.72,5.22-4.29,5.22s-4.2-1.52-4.2-5.12v-7.27c0-3.14,1.62-4.89,4.29-4.89S342.83,108.66,342.83,111.76Zm-6.38,0v7.37c0,1.92.66,3.14,2.11,3.14s2.11-.92,2.11-3.17V111.7c0-1.72-.59-3-2.08-3S336.45,109.81,336.45,111.73Z" transform="translate(-74.43 -38.13)"/><path d="M346.93,115.07h0c.86-1.85,2.81-5.85,3.83-8H353c-1.19,2.31-2.15,4.1-3.2,6.11l3.6,10.64h-2.31l-2.71-8.59c-.33.63-1.16,2.25-1.49,2.81v5.78h-2.08V100.8h2.08Z" transform="translate(-74.43 -38.13)"/><path d="M355.85,115.86v2.81c0,1.75.33,3.63,2.08,3.63s2-1.32,2-3v-.13h2v.13c0,2-.46,4.86-4,4.86-3.34,0-4.16-2.21-4.16-5.62v-6.41c0-2.61.93-5.25,4.2-5.25s4,2.38,4,5.25v3.77Zm4.13-1.75v-2.18c0-1.55-.23-3.27-2-3.27s-2.08,1.45-2.08,3.3v2.15Z" transform="translate(-74.43 -38.13)"/><path d="M369.43,109.48c-2.11,0-3.47,1.39-3.47,4.29v10.07h-2.08v-11c0-2.71,0-4.29,0-5.71h2c0,.46.07,1.42.07,2.58a3.59,3.59,0,0,1,3.5-2.81Z" transform="translate(-74.43 -38.13)"/><path d="M368.5,123.85v-4.49h2.11v4.49Z" transform="translate(-74.43 -38.13)"/><path d="M380.36,118.63v.23c0,2.84-.73,5.25-4,5.25-3.14,0-4-2.18-4-5.55v-6.7c0-2.84,1.06-5,4.1-5,3.27,0,3.9,2.41,3.9,4.66v.69h-2.08v-.53c0-1.59-.26-3-1.85-3-1.39,0-1.95,1-1.95,3.14V119c0,1.62.33,3.34,1.88,3.34,1.39,0,1.92-.92,1.92-3.2v-.46Z" transform="translate(-74.43 -38.13)"/><path d="M390.27,111.76v7.13c0,3.67-1.72,5.22-4.29,5.22s-4.2-1.52-4.2-5.12v-7.27c0-3.14,1.62-4.89,4.29-4.89S390.27,108.66,390.27,111.76Zm-6.38,0v7.37c0,1.92.66,3.14,2.11,3.14s2.11-.92,2.11-3.17V111.7c0-1.72-.59-3-2.08-3S383.9,109.81,383.9,111.73Z" transform="translate(-74.43 -38.13)"/><path d="M392.29,111.93c0-3,0-4,0-4.82h2a8.11,8.11,0,0,1,.1,1.59,2.89,2.89,0,0,1,2.84-1.85,2.37,2.37,0,0,1,2.58,1.95,3.23,3.23,0,0,1,3.07-1.95c1.59,0,3.1.69,3.1,3.9v13.11h-2.08V111.2c0-1.35-.26-2.41-1.65-2.41-1.65,0-2,1.52-2,3.34v11.73h-2.11V111.33c0-1.85-.46-2.54-1.68-2.54-1.62,0-2,1.55-2,3.53v11.53h-2.08Z" transform="translate(-74.43 -38.13)"/><path class="cls-1" d="M131.57,64.83c3.16,4,15.17-.08,26.83-9.21q1.12-.88,2.18-1.77v-3c-1.16,1.08-2.41,2.15-3.75,3.2-9.09,7.11-18.45,10.32-20.91,7.17s2.91-11.46,12-18.56a56.57,56.57,0,0,1,6.64-4.49H150.9C149.59,39,148.28,40,147,41,135.3,50.13,128.41,60.8,131.57,64.83Z" transform="translate(-74.43 -38.13)"/><path class="cls-1" d="M123.54,113.65c23.26-3.15,35-16,35-16C133,113.48,117.5,112.62,117.5,112.62L103.43,99.41c23.28,1.15,48.2-15.26,57.15-21.79V67.77c-21.69,16.15-43.32,23.17-49.19,15.66-6-7.7,6.79-27.81,28.71-45.31H74.43v86.15H137C131.62,117.61,123.54,113.65,123.54,113.65Z" transform="translate(-74.43 -38.13)"/><ellipse class="cls-1" cx="156.09" cy="45.25" rx="4.55" ry="1.57" transform="translate(-69.17 67.63) rotate(-38.03)"/></g><g id="Layer_2" data-name="Layer 2"><path d="M415.65,51.48a2.56,2.56,0,1,1-2.53-2.7A2.54,2.54,0,0,1,415.65,51.48Zm-4.58,0a2.06,2.06,0,0,0,2,2.21,1.94,1.94,0,0,0,2-2.19,2.06,2.06,0,0,0-2-2.23A2,2,0,0,0,411.07,51.48Zm1.05,1.3V50h1c.59,0,1.05.22,1.05.81a.63.63,0,0,1-.45.63.78.78,0,0,1,.39.79,3.68,3.68,0,0,0,0,.51h-.51a2.69,2.69,0,0,1,0-.55c0-.37-.14-.57-.55-.57h-.41v1.12Zm.51-1.5h.49c.26,0,.53-.08.53-.38s-.16-.43-.55-.43h-.47Z" transform="translate(-74.43 -38.13)"/></g></svg>