<svg id="Layer_1" data-name="Layer 1" xmlns="http://www.w3.org/2000/svg" viewBox="0 0 30 30"><defs><style>.cls-1{fill:#ea7200;}</style></defs><title>genius-stacked-icon</title><path class="cls-1" d="M21.12,10.81c1.1,1.41,5.29,0,9.36-3.21L31.24,7V5.92c-.41.38-.84.75-1.31,1.12-3.17,2.48-6.44,3.6-7.29,2.5s1-4,4.18-6.48A19.72,19.72,0,0,1,29.14,1.5H27.86c-.46.31-.92.64-1.37,1C22.42,5.68,20,9.4,21.12,10.81Z" transform="translate(-1.24 -1.5)"/><path class="cls-1" d="M18.34,27.79c8.1-1.1,12.2-5.56,12.2-5.56-8.9,5.5-14.3,5.2-14.3,5.2l-4.9-4.6c8.11.4,16.79-5.31,19.9-7.59V11.82c-7.56,5.62-15.09,8.07-17.13,5.45s2.37-9.69,10-15.78H1.24v30H23a15.78,15.78,0,0,0-4.69-3.7Z" transform="translate(-1.24 -1.5)"/><path class="cls-1" d="M29.21,3.37c-.69.54-1.1,1.17-.91,1.41s.9,0,1.59-.55,1.1-1.17.91-1.41-.9,0-1.59.55Z" transform="translate(-1.24 -1.5)"/></svg>